<?xml version="1.0" standalone="no"?><svg xmlns:xlink="http://www.w3.org/1999/xlink" xmlns="http://www.w3.org/2000/svg" viewBox="0 0 1920 960" preserveAspectRatio="xMaxYMax slice"><g transform="scale(1.4349775784753362)"><rect x="0" y="0" width="1338" height="669" fill="#000000"/><path d="M 133.8 66.9 A 66.9 66.9 0 0 1  200.70000000000002 0 L 133.8 66.9 A 66.9 66.9 0 0 0 200.70000000000002 0" fill="#588296"/><rect x="267.6" y="0" width="66.9" height="66.9" fill="#000000"/><path d="M 267.6 33.45 A 33.45 33.45 0 0 1  301.05 0 L 267.6 33.45 A 33.45 33.45 0 0 0 301.05 0" fill="#8cceee"/><rect x="401.40000000000003" y="0" width="66.9" height="66.9" fill="#000000"/><path d="M 434.85 33.45 A 33.45 33.45 0 0 1  468.3 0 L 434.85 33.45 A 33.45 33.45 0 0 0 468.3 0" fill="#8ccff0"/><rect x="468.30000000000007" y="0" width="66.9" height="66.9" fill="#000000"/><rect x="735.9000000000001" y="0" width="66.9" height="66.9" fill="#000000"/><path d="M 869.7 0 A 66.9 66.9 0 0 1  936.6 66.9 L 869.7 0 A 66.9 66.9 0 0 0 936.6 66.9" fill="#7db8d5"/><path d="M 1003.5 66.9 A 66.9 66.9 0 0 1  1070.4 0 L 1003.5 66.9 A 66.9 66.9 0 0 0 1070.4 0" fill="#202f36"/><path d="M 1271.1 0 A 66.9 66.9 0 0 1  1338 66.9 L 1271.1 0 A 66.9 66.9 0 0 0 1338 66.9" fill="#4d7284"/><rect x="334.5" y="66.9" width="66.9" height="66.9" fill="#000000"/><path d="M 334.5 100.35 A 33.45 33.45 0 0 1  367.95 133.8 L 334.5 100.35 A 33.45 33.45 0 0 0 367.95 133.8" fill="#436372"/><path d="M 367.95 133.8 A 33.45 33.45 0 0 1  401.4 100.35 L 367.95 133.8 A 33.45 33.45 0 0 0 401.4 100.35" fill="#8dd0f0"/><rect x="401.40000000000003" y="66.9" width="66.9" height="66.9" fill="#000000"/><path d="M 401.4 100.35 A 33.45 33.45 0 0 1  434.84999999999997 133.8 L 401.4 100.35 A 33.45 33.45 0 0 0 434.84999999999997 133.8" fill="#6c9fb8"/><path d="M 669 66.9 A 66.9 66.9 0 0 1  735.9 133.8 L 669 66.9 A 66.9 66.9 0 0 0 735.9 133.8" fill="#83c1df"/><path d="M 869.7 133.8 A 66.9 66.9 0 0 1  936.6 66.9 L 869.7 133.8 A 66.9 66.9 0 0 0 936.6 66.9" fill="#182d20"/><path d="M 936.6 66.9 A 66.9 66.9 0 0 1  1003.5 133.8 L 936.6 66.9 A 66.9 66.9 0 0 0 1003.5 133.8" fill="#162126"/><path d="M 133.8 133.8 A 66.9 66.9 0 0 1  200.70000000000002 200.70000000000002 L 133.8 133.8 A 66.9 66.9 0 0 0 200.70000000000002 200.70000000000002" fill="#65c087"/><path d="M 200.7 133.8 A 66.9 66.9 0 0 1  267.6 200.70000000000002 L 200.7 133.8 A 66.9 66.9 0 0 0 267.6 200.70000000000002" fill="#356547"/><path d="M 267.6 200.70000000000002 A 66.9 66.9 0 0 1  334.5 133.8 L 267.6 200.70000000000002 A 66.9 66.9 0 0 0 334.5 133.8" fill="#519a6c"/><rect x="468.30000000000007" y="133.8" width="66.9" height="66.9" fill="#000000"/><path d="M 468.3 167.25 A 33.45 33.45 0 0 1  501.75 133.8 L 468.3 167.25 A 33.45 33.45 0 0 0 501.75 133.8" fill="#0b1012"/><path d="M 501.75 133.8 A 33.45 33.45 0 0 1  535.2 167.25 L 501.75 133.8 A 33.45 33.45 0 0 0 535.2 167.25" fill="#5bad7a"/><path d="M 468.3 167.25 A 33.45 33.45 0 0 1  501.75 200.7 L 468.3 167.25 A 33.45 33.45 0 0 0 501.75 200.7" fill="#182328"/><path d="M 602.1 133.8 A 66.9 66.9 0 0 1  669 200.70000000000002 L 602.1 133.8 A 66.9 66.9 0 0 0 669 200.70000000000002" fill="#46855e"/><rect x="669" y="133.8" width="66.9" height="66.9" fill="#000000"/><path d="M 735.9 133.8 A 66.9 66.9 0 0 1  802.8 200.70000000000002 L 735.9 133.8 A 66.9 66.9 0 0 0 802.8 200.70000000000002" fill="#2a5039"/><rect x="802.8000000000001" y="133.8" width="66.9" height="66.9" fill="#000000"/><path d="M 836.25 133.8 A 33.45 33.45 0 0 1  869.7 167.25 L 836.25 133.8 A 33.45 33.45 0 0 0 869.7 167.25" fill="#2b523a"/><path d="M 836.25 200.7 A 33.45 33.45 0 0 1  869.7 167.25 L 836.25 200.7 A 33.45 33.45 0 0 0 869.7 167.25" fill="#16291d"/><rect x="1070.4" y="133.8" width="66.9" height="66.9" fill="#000000"/><path d="M 1070.4 167.25 A 33.45 33.45 0 0 1  1103.8500000000001 200.7 L 1070.4 167.25 A 33.45 33.45 0 0 0 1103.8500000000001 200.7" fill="#70a5bf"/><rect x="1137.3000000000002" y="133.8" width="66.9" height="66.9" fill="#000000"/><path d="M 1137.3 200.7 A 33.45 33.45 0 0 1  1170.75 167.25 L 1137.3 200.7 A 33.45 33.45 0 0 0 1170.75 167.25" fill="#0f171a"/><rect x="1271.1000000000001" y="133.8" width="66.9" height="66.9" fill="#000000"/><path d="M 1271.1 167.25 A 33.45 33.45 0 0 1  1304.55 133.8 L 1271.1 167.25 A 33.45 33.45 0 0 0 1304.55 133.8" fill="#151f23"/><path d="M 1304.55 133.8 A 33.45 33.45 0 0 1  1338 167.25 L 1304.55 133.8 A 33.45 33.45 0 0 0 1338 167.25" fill="#36505d"/><path d="M 334.5 267.6 A 66.9 66.9 0 0 1  401.4 200.7 L 334.5 267.6 A 66.9 66.9 0 0 0 401.4 200.7" fill="#46855e"/><rect x="0" y="267.6" width="66.9" height="66.9" fill="#000000"/><path d="M 33.45 301.05 A 33.45 33.45 0 0 1  66.9 334.5 L 33.45 301.05 A 33.45 33.45 0 0 0 66.9 334.5" fill="#88c9e8"/><rect x="200.70000000000002" y="267.6" width="66.9" height="66.9" fill="#000000"/><path d="M 234.15 301.05 A 33.45 33.45 0 0 1  267.6 334.5 L 234.15 301.05 A 33.45 33.45 0 0 0 267.6 334.5" fill="#1d2a31"/><rect x="334.5" y="267.6" width="66.9" height="66.9" fill="#000000"/><path d="M 367.95 301.05 A 33.45 33.45 0 0 1  401.4 267.6 L 367.95 301.05 A 33.45 33.45 0 0 0 401.4 267.6" fill="#090e10"/><path d="M 334.5 301.05 A 33.45 33.45 0 0 1  367.95 334.5 L 334.5 301.05 A 33.45 33.45 0 0 0 367.95 334.5" fill="#71a7c1"/><path d="M 367.95 334.5 A 33.45 33.45 0 0 1  401.4 301.05 L 367.95 334.5 A 33.45 33.45 0 0 0 401.4 301.05" fill="#7ff1aa"/><path d="M 802.8 267.6 A 66.9 66.9 0 0 1  869.6999999999999 334.5 L 802.8 267.6 A 66.9 66.9 0 0 0 869.6999999999999 334.5" fill="#7cb7d4"/><path d="M 936.6 334.5 A 66.9 66.9 0 0 1  1003.5 267.6 L 936.6 334.5 A 66.9 66.9 0 0 0 1003.5 267.6" fill="#050708"/><path d="M 1204.2 334.5 A 66.9 66.9 0 0 1  1271.1000000000001 267.6 L 1204.2 334.5 A 66.9 66.9 0 0 0 1271.1000000000001 267.6" fill="#529c6e"/><rect x="200.70000000000002" y="334.5" width="66.9" height="66.9" fill="#000000"/><path d="M 200.7 334.5 A 33.45 33.45 0 0 1  234.14999999999998 367.95 L 200.7 334.5 A 33.45 33.45 0 0 0 234.14999999999998 367.95" fill="#54a071"/><path d="M 200.7 401.4 A 33.45 33.45 0 0 1  234.14999999999998 367.95 L 200.7 401.4 A 33.45 33.45 0 0 0 234.14999999999998 367.95" fill="#417b57"/><path d="M 234.15 401.4 A 33.45 33.45 0 0 1  267.6 367.95 L 234.15 401.4 A 33.45 33.45 0 0 0 267.6 367.95" fill="#182328"/><path d="M 669 401.4 A 66.9 66.9 0 0 1  735.9 334.5 L 669 401.4 A 66.9 66.9 0 0 0 735.9 334.5" fill="#67c289"/><path d="M 735.9 334.5 A 66.9 66.9 0 0 1  802.8 401.4 L 735.9 334.5 A 66.9 66.9 0 0 0 802.8 401.4" fill="#4f966a"/><rect x="936.6000000000001" y="334.5" width="66.9" height="66.9" fill="#000000"/><path d="M 936.6 334.5 A 33.45 33.45 0 0 1  970.0500000000001 367.95 L 936.6 334.5 A 33.45 33.45 0 0 0 970.0500000000001 367.95" fill="#1c3525"/><path d="M 970.05 367.95 A 33.45 33.45 0 0 1  1003.5 401.4 L 970.05 367.95 A 33.45 33.45 0 0 0 1003.5 401.4" fill="#82c0de"/><rect x="1003.5000000000001" y="334.5" width="66.9" height="66.9" fill="#000000"/><path d="M 1070.4 401.4 A 66.9 66.9 0 0 1  1137.3000000000002 334.5 L 1070.4 401.4 A 66.9 66.9 0 0 0 1137.3000000000002 334.5" fill="#1e2c33"/><path d="M 1137.3 401.4 A 66.9 66.9 0 0 1  1204.2 334.5 L 1137.3 401.4 A 66.9 66.9 0 0 0 1204.2 334.5" fill="#263841"/><path d="M 200.7 468.29999999999995 A 66.9 66.9 0 0 1  267.6 401.4 L 200.7 468.29999999999995 A 66.9 66.9 0 0 0 267.6 401.4" fill="#44815b"/><path d="M 602.1 401.4 A 66.9 66.9 0 0 1  669 468.29999999999995 L 602.1 401.4 A 66.9 66.9 0 0 0 669 468.29999999999995" fill="#36505d"/><path d="M 669 468.29999999999995 A 66.9 66.9 0 0 1  735.9 401.4 L 669 468.29999999999995 A 66.9 66.9 0 0 0 735.9 401.4" fill="#73a9c4"/><path d="M 0 468.3 A 66.9 66.9 0 0 1  66.9 535.2 L 0 468.3 A 66.9 66.9 0 0 0 66.9 535.2" fill="#5fb57f"/><rect x="200.70000000000002" y="468.30000000000007" width="66.9" height="66.9" fill="#000000"/><path d="M 401.4 535.2 A 66.9 66.9 0 0 1  468.29999999999995 468.3 L 401.4 535.2 A 66.9 66.9 0 0 0 468.29999999999995 468.3" fill="#5c889d"/><rect x="468.30000000000007" y="468.30000000000007" width="66.9" height="66.9" fill="#000000"/><path d="M 501.75 468.3 A 33.45 33.45 0 0 1  535.2 501.75 L 501.75 468.3 A 33.45 33.45 0 0 0 535.2 501.75" fill="#5bac79"/><rect x="735.9000000000001" y="468.30000000000007" width="66.9" height="66.9" fill="#000000"/><path d="M 769.35 468.3 A 33.45 33.45 0 0 1  802.8000000000001 501.75 L 769.35 468.3 A 33.45 33.45 0 0 0 802.8000000000001 501.75" fill="#6dce91"/><path d="M 769.35 535.2 A 33.45 33.45 0 0 1  802.8000000000001 501.75 L 769.35 535.2 A 33.45 33.45 0 0 0 802.8000000000001 501.75" fill="#58a775"/><path d="M 936.6 468.3 A 66.9 66.9 0 0 1  1003.5 535.2 L 936.6 468.3 A 66.9 66.9 0 0 0 1003.5 535.2" fill="#0a0f11"/><rect x="1137.3000000000002" y="468.30000000000007" width="66.9" height="66.9" fill="#000000"/><path d="M 1170.75 501.75 A 33.45 33.45 0 0 1  1204.2 468.3 L 1170.75 501.75 A 33.45 33.45 0 0 0 1204.2 468.3" fill="#77b0cb"/><path d="M 1137.3 535.2 A 33.45 33.45 0 0 1  1170.75 501.75 L 1137.3 535.2 A 33.45 33.45 0 0 0 1170.75 501.75" fill="#466878"/><path d="M 1204.2 535.2 A 66.9 66.9 0 0 1  1271.1000000000001 468.3 L 1204.2 535.2 A 66.9 66.9 0 0 0 1271.1000000000001 468.3" fill="#4e9368"/><path d="M 535.2 535.2 A 66.9 66.9 0 0 1  602.1 602.1 L 535.2 535.2 A 66.9 66.9 0 0 0 602.1 602.1" fill="#0d1911"/><path d="M 869.7 535.2 A 66.9 66.9 0 0 1  936.6 602.1 L 869.7 535.2 A 66.9 66.9 0 0 0 936.6 602.1" fill="#529b6d"/><path d="M 1137.3 535.2 A 66.9 66.9 0 0 1  1204.2 602.1 L 1137.3 535.2 A 66.9 66.9 0 0 0 1204.2 602.1" fill="#6ea2bb"/><path d="M 0 602.1 A 66.9 66.9 0 0 1  66.9 669 L 0 602.1 A 66.9 66.9 0 0 0 66.9 669" fill="#5fb57f"/><path d="M 66.9 602.1 A 66.9 66.9 0 0 1  133.8 669 L 66.9 602.1 A 66.9 66.9 0 0 0 133.8 669" fill="#427c57"/><rect x="334.5" y="602.1" width="66.9" height="66.9" fill="#000000"/><path d="M 367.95 635.5500000000001 A 33.45 33.45 0 0 1  401.4 602.1 L 367.95 635.5500000000001 A 33.45 33.45 0 0 0 401.4 602.1" fill="#162a1d"/><path d="M 334.5 669 A 33.45 33.45 0 0 1  367.95 635.55 L 334.5 669 A 33.45 33.45 0 0 0 367.95 635.55" fill="#193022"/><rect x="401.40000000000003" y="602.1" width="66.9" height="66.9" fill="#000000"/><path d="M 434.85 669 A 33.45 33.45 0 0 1  468.3 635.55 L 434.85 669 A 33.45 33.45 0 0 0 468.3 635.55" fill="#8fd3f3"/><rect x="468.30000000000007" y="602.1" width="66.9" height="66.9" fill="#000000"/><path d="M 468.3 635.5500000000001 A 33.45 33.45 0 0 1  501.75 602.1 L 468.3 635.5500000000001 A 33.45 33.45 0 0 0 501.75 602.1" fill="#1b3425"/><path d="M 501.75 602.1 A 33.45 33.45 0 0 1  535.2 635.5500000000001 L 501.75 602.1 A 33.45 33.45 0 0 0 535.2 635.5500000000001" fill="#437e59"/><path d="M 468.3 635.55 A 33.45 33.45 0 0 1  501.75 669 L 468.3 635.55 A 33.45 33.45 0 0 0 501.75 669" fill="#66c289"/><rect x="669" y="602.1" width="66.9" height="66.9" fill="#000000"/><path d="M 735.9 669 A 66.9 66.9 0 0 1  802.8 602.1 L 735.9 669 A 66.9 66.9 0 0 0 802.8 602.1" fill="#75adc8"/><rect x="1137.3000000000002" y="602.1" width="66.9" height="66.9" fill="#000000"/><path d="M 1137.3 602.1 A 33.45 33.45 0 0 1  1170.75 635.5500000000001 L 1137.3 602.1 A 33.45 33.45 0 0 0 1170.75 635.5500000000001" fill="#496c7d"/><rect x="1271.1000000000001" y="602.1" width="66.9" height="66.9" fill="#000000"/></g></svg>